<svg xmlns="http://www.w3.org/2000/svg" viewBox="0 0 512 512">
  <defs>
    <linearGradient id="g2bg" x1="0" y1="0" x2="1" y2="1"><stop offset="0" stop-color="#1a1f25"/><stop offset="1" stop-color="#0c1014"/></linearGradient>
    <linearGradient id="g2em" x1="0" y1="0" x2="1" y2="1"><stop offset="0" stop-color="#46c694"/><stop offset="1" stop-color="#2a945f"/></linearGradient>
  </defs>
  <rect width="512" height="512" rx="116" fill="url(#g2bg)"/>
  <path d="M256 256 L256 106 A150 150 0 0 1 406 256 Z" fill="url(#g2em)"/>
  <path d="M256 256 L406 256 A150 150 0 0 1 256 406 Z" fill="#eef3f0"/>
  <path d="M256 256 L256 406 A150 150 0 0 1 106 256 Z" fill="url(#g2em)"/>
  <path d="M256 256 L106 256 A150 150 0 0 1 256 106 Z" fill="#eef3f0"/>
  <circle cx="256" cy="256" r="150" fill="none" stroke="#0c1014" stroke-width="10"/>
  <circle cx="256" cy="256" r="150" fill="none" stroke="#ffffff" stroke-opacity="0.14" stroke-width="3"/>
  <g stroke="#0c1014" stroke-width="6">
    <line x1="256" y1="80" x2="256" y2="432"/>
    <line x1="80" y1="256" x2="432" y2="256"/>
  </g>
  <circle cx="256" cy="256" r="30" fill="#0c1014"/>
  <circle cx="256" cy="256" r="30" fill="none" stroke="#ffffff" stroke-width="4" stroke-opacity="0.7"/>
  <circle cx="256" cy="256" r="8" fill="#ffffff"/>
</svg>
